<svg xmlns="http://www.w3.org/2000/svg" width="165.851" height="23.503" viewBox="0 0 165.851 23.503"><g transform="translate(0.008 0.005)"><g transform="translate(-0.008 -0.005)"><path d="M7.371,23.493a12.1,12.1,0,0,1-3.407-.416A6.261,6.261,0,0,1,1.677,21.91,4.358,4.358,0,0,1,.393,20.122a6.33,6.33,0,0,1-.4-2.3V0h4.44V17.851q0,2.166,2.939,2.168H21.958q2.937,0,2.939-2.168V0h4.44V17.82a9.634,9.634,0,0,1-.252,2.3,3.854,3.854,0,0,1-.966,1.788,4.756,4.756,0,0,1-1.968,1.166,10.514,10.514,0,0,1-3.253.416Z" transform="translate(0.008 0.005)" fill="#11b5f9"></path><path d="M682.431,23.493,657.366,5.2V23.493h-3.874V0h3.838l23.4,17.455V0H684.6v23.5Z" transform="translate(-619.913 0.005)" fill="#11b5f9"></path><path d="M1346.592,23.493V0h4.44v23.5Z" transform="translate(-1277.399 0.005)" fill="#11b5f9"></path><path d="M1541.651,23.493l-8.879-10.482h-7.641V23.493h-4.439V0h4.439V9.542h7.543L1541.518,0h5.272l-10.446,10.95,10.415,12.548Z" transform="translate(-1442.553 0.005)" fill="#11b5f9"></path><path d="M2078.592,23.493V0h24.166V3.469h-19.726V9.342h18.724v3.474h-18.724v7.209h19.726V23.5h-24.166Z" transform="translate(-1971.786 0.005)" fill="#11b5f9"></path><path d="M2651.231,23.493,2626.166,5.2V23.493h-3.874V0h3.838l23.4,17.455V0h3.869v23.5Z" transform="translate(-2487.549 0.005)" fill="#11b5f9"></path></g></g></svg>